<svg width="338" height="41" viewBox="0 0 338 41" fill="none" xmlns="http://www.w3.org/2000/svg">
<g id="Title">
<path id="19" d="M288 17C284 21.3333 277.3 30.4 282.5 32C287.7 33.6 291 27.3333 292 24C291.667 22.5 290.4 19.8 288 21C285.6 22.2 292 20.5 295.5 19.5" stroke="#FF97E5" stroke-width="4"/>
<path id="20" d="M304 17C301.667 21 297.5 29.4 299.5 31C304 27.5 309 21.5 310.5 22C312 22.5 311.5 30 311.5 30.5C311.5 31 313.5 32.5 315 29" stroke="#FF97E5" stroke-width="4"/>
<path id="21" d="M333 21.5C335.833 17.6667 338.6 11.7 327 18.5C321.4 23.7 323.333 26.3333 325 27C329.5 29.8333 335 35 321 33" stroke="#FF97E5" stroke-width="4"/>
<path id="18" d="M277.5 17.5L264.5 18" stroke="#FF97E5" stroke-width="4"/>
<path id="12" d="M188 37C186.833 37.6667 182.6 36.4 175 26C164.6 16 167.333 8.83334 170 6.50001C172.167 4.16667 177.3 1.20001 180.5 8.00001C176.1 14.8 170.667 19.1667 168.5 20.5C154.5 30.9 162.667 33.5 168.5 33.5C174 30.6667 185.3 24.1 186.5 20.5" stroke="#FF97E5" stroke-width="4"/>
<path id="13" d="M202 31.5L213.5 3.5C222.667 3.83333 234.7 7.5 209.5 19.5C223.9 18.3 223.5 26 221.5 30C219.833 33.6667 214.3 39.9 205.5 35.5" stroke="#FF97E5" stroke-width="4"/>
<path id="14" d="M233.5 17.5C231.667 20.5 228.3 27 229.5 29C231.5 36.6 236 31.1667 238 27.5C238.667 27.3333 240.4 25.1 242 17.5C237.6 34.3 240.167 35.5 242 34" stroke="#FF97E5" stroke-width="4"/>
<path id="10" d="M120.5 25C123.333 25.5 128.9 25.4 128.5 21C128.1 16.6 124.667 16.1667 123 16.5C119.833 19.1667 114.2 26.1 117 32.5C119.8 36.1 123.833 33 125.5 31" stroke="#FF97E5" stroke-width="4"/>
<path id="9" d="M101.5 5L92 31C95.6667 27.1667 103.7 19.6 106.5 20C110 20.5 106.5 25 106.5 29C106.5 32.2 109.167 30.3333 110.5 29" stroke="#FF97E5" stroke-width="4"/>
<path id="4" d="M50.5 20.5C47.7 29.3 47.3333 33.5 47.5 34.5" stroke="#FF97E5" stroke-width="4"/>
<path id="2" d="M44.5 16.5C34.5 16.5 31.3333 14.8333 31 14" stroke="#FF97E5" stroke-width="4"/>
<path id="3" d="M39 9C30.5 28.5 25 35.5 41 31.5" stroke="#FF97E5" stroke-width="4"/>
<path id="1" d="M27.5 11.5C31.1667 5.49999 34.2 -3.80001 17 6.99999C-0.199986 17.8 9.83335 24.1667 17 26C21 27.3333 26.2 31.3 15 36.5C3.80002 41.7 2.33335 35 3.00001 31" stroke="#FF97E5" stroke-width="4"/>
<path id="5" d="M54 9C53.2 12.2 51.3333 13 50.5 13" stroke="#FF97E5" stroke-width="4"/>
<path id="6" d="M57.5 18C65.9 18 70 16.6667 71 16" stroke="#FF97E5" stroke-width="4"/>
<path id="7" d="M66 10.5C54.8 35.3 61.3334 35.5 66 32.5" stroke="#FF97E5" stroke-width="4"/>
<path id="8" d="M85 20.5C84 17.5 80.9 13.8 76.5 23C72.1 32.2 74.6667 32.8333 76.5 32C77.8334 32.8333 81.4 33.6 85 30" stroke="#FF97E5" stroke-width="4"/>
<path id="16" d="M246 16C249.627 15.7733 257.904 15.256 262 15" stroke="#FF97E5" stroke-width="4"/>
<path id="15" d="M256.5 8.5C250 18.6667 241.4 37.5 259 31.5" stroke="#FF97E5" stroke-width="4"/>
<path id="17" d="M273.957 9C268.281 19.7065 260.744 39.1186 276 31.115" stroke="#FF97E5" stroke-width="4"/>
<path id="11" d="M145.5 19.5C146.667 16.1667 147.1 10.9 139.5 16.5C134.7 20.9 135.5 24.3333 136.5 25.5C139.5 28.8333 143 34.9 133 32.5" stroke="#FF97E5" stroke-width="4"/>
</g>
</svg>
