<svg width="458" height="74" viewBox="0 0 458 74" fill="none" xmlns="http://www.w3.org/2000/svg">
<g id="yarn" filter="url(#filter0_d_13_3)">
<path d="M5.68921 26.3485C5.28905 25.9678 4.65608 25.9837 4.27544 26.3838C3.8948 26.784 3.91062 27.4169 4.31079 27.7976L5.68921 26.3485ZM95 63.573L95.051 64.5717L95 63.573ZM412 63.573L412.076 64.5701L412.125 64.5664L412.172 64.5581L412 63.573ZM443.167 27.073C443.167 30.0185 445.554 32.4064 448.5 32.4064C451.446 32.4064 453.833 30.0185 453.833 27.073C453.833 24.1275 451.446 21.7397 448.5 21.7397C445.554 21.7397 443.167 24.1275 443.167 27.073ZM5 27.073L4.31079 27.7976C11.2173 34.3672 24.0017 44.0513 39.9867 51.8468C55.9703 59.6417 75.2259 65.5832 95.051 64.5717L95 63.573L94.949 62.5743C75.5741 63.5628 56.6631 57.7544 40.8633 50.0492C25.065 42.3447 12.4494 32.7788 5.68921 26.3485L5 27.073ZM95 63.573L95.051 64.5717C107.527 63.9352 117.974 59.4761 127.839 53.2467C137.662 47.0434 147.015 39.0058 157.17 31.2425C177.52 15.6841 201.546 0.832826 240.969 2.07254L241 1.07303L241.031 0.0735241C200.954 -1.18677 176.48 13.962 155.955 29.6536C145.672 37.5153 136.494 45.4152 126.771 51.5556C117.088 57.67 106.973 61.9608 94.949 62.5743L95 63.573ZM241 1.07303L240.969 2.07254C260.677 2.69229 273.334 7.45665 283.194 14.0601C293.129 20.7149 300.208 29.1991 308.934 37.5457C317.622 45.8565 327.777 53.8342 343.621 59.1155C359.444 64.3896 380.868 66.9515 412.076 64.5701L412 63.573L411.924 62.5759C380.882 64.9446 359.744 62.3814 344.254 57.2181C328.785 52.0619 318.878 44.2896 310.316 36.1004C301.792 27.947 294.433 19.1812 284.306 12.3984C274.103 5.56441 261.073 0.703766 241.031 0.0735241L241 1.07303ZM412 63.573L412.172 64.5581C418.948 63.3724 428.934 60.1004 436.902 54.0967C444.898 48.0721 450.947 39.2143 449.493 26.9552L448.5 27.073L447.507 27.1908C448.853 38.5318 443.319 46.7573 435.698 52.4994C428.05 58.2623 418.386 61.4403 411.828 62.588L412 63.573Z" fill="#919191"/>
</g>
<defs>
<filter id="filter0_d_13_3" x="0" y="0" width="457.833" height="73.4645" filterUnits="userSpaceOnUse" color-interpolation-filters="sRGB">
<feFlood flood-opacity="0" result="BackgroundImageFix"/>
<feColorMatrix in="SourceAlpha" type="matrix" values="0 0 0 0 0 0 0 0 0 0 0 0 0 0 0 0 0 0 127 0" result="hardAlpha"/>
<feOffset dy="4"/>
<feGaussianBlur stdDeviation="2"/>
<feComposite in2="hardAlpha" operator="out"/>
<feColorMatrix type="matrix" values="0 0 0 0 0 0 0 0 0 0 0 0 0 0 0 0 0 0 0.25 0"/>
<feBlend mode="normal" in2="BackgroundImageFix" result="effect1_dropShadow_13_3"/>
<feBlend mode="normal" in="SourceGraphic" in2="effect1_dropShadow_13_3" result="shape"/>
</filter>
</defs>
</svg>
